# xmcd
#
# Track frame offsets: 
#        150
#        26513
#        76410
#        89380
#        108908
#        120455
#
# Disc length: 2225 seconds
#
# Revision: 0
# Processed by: cddbd v1.5.2PL0 Copyright (c) Steve Scherf et al.
# Submitted via: ExactAudioCopy v0.99pb5
#
DISCID=3c08af06
DTITLE=Rush  - A Farewell To Kings - Warner Bros. 13476  (SHM) 
DYEAR=1900
DGENRE=
TTITLE0=A Farewell To Kings
TTITLE1=Xanadu
TTITLE2=Closer To The Heart
TTITLE3=Cinderella Man
TTITLE4=Madrigal
TTITLE5=Cygnus X-1
EXTD=
EXTT0=
EXTT1=
EXTT2=
EXTT3=
EXTT4=
EXTT5=
PLAYORDER=
